<svg width="27" height="27" viewBox="0 0 27 27" fill="none" xmlns="http://www.w3.org/2000/svg">
<path d="M21.0938 11.8125C21.4453 11.8125 21.7749 11.8784 22.0825 12.0103C22.3901 12.1421 22.6582 12.3223 22.8867 12.5508C23.1152 12.7793 23.2954 13.0474 23.4272 13.355C23.5591 13.6626 23.625 13.9922 23.625 14.3438V19.4062C23.625 20.4521 23.4272 21.4365 23.0317 22.3594C22.6362 23.2822 22.0913 24.0864 21.397 24.772C20.7026 25.4575 19.8984 25.998 18.9844 26.3936C18.0703 26.7891 17.0859 26.9912 16.0312 27C14.7656 27 13.5879 26.7583 12.498 26.2749C11.4082 25.7915 10.415 25.106 9.51855 24.2183L3.2959 17.9956C3.0498 17.7495 2.86084 17.4639 2.729 17.1387C2.59717 16.8135 2.53125 16.4795 2.53125 16.1367C2.53125 15.7676 2.60156 15.4248 2.74219 15.1084C2.88281 14.792 3.07178 14.5107 3.30908 14.2646C3.54639 14.0186 3.82324 13.834 4.13965 13.7109C4.45605 13.5879 4.79883 13.5176 5.16797 13.5C5.88867 13.5 6.5083 13.7593 7.02686 14.2778L8.4375 15.6753V11.2456C7.91895 10.9995 7.45312 10.6919 7.04004 10.3228C6.62695 9.95361 6.27539 9.53613 5.98535 9.07031C5.69531 8.60449 5.4668 8.10352 5.2998 7.56738C5.13281 7.03125 5.05371 6.47754 5.0625 5.90625C5.0625 5.08887 5.21631 4.32422 5.52393 3.6123C5.83154 2.90039 6.25342 2.27197 6.78955 1.72705C7.32568 1.18213 7.94971 0.760254 8.66162 0.461426C9.37354 0.162598 10.1426 0.00878906 10.9688 0C11.7861 0 12.5508 0.153809 13.2627 0.461426C13.9746 0.769043 14.603 1.19092 15.1479 1.72705C15.6929 2.26318 16.1147 2.88721 16.4136 3.59912C16.7124 4.31104 16.8662 5.08008 16.875 5.90625C16.875 6.72363 16.7124 7.50586 16.3872 8.25293C16.062 9 15.6006 9.65479 15.0029 10.2173C15.3105 10.2964 15.5874 10.4282 15.8335 10.6128C16.0796 10.7974 16.2949 11.0259 16.4795 11.2983C16.875 11.0786 17.2881 10.9688 17.7188 10.9688C18.1582 10.9688 18.5669 11.0698 18.9448 11.272C19.3228 11.4741 19.626 11.7642 19.8545 12.1421C20.25 11.9224 20.6631 11.8125 21.0938 11.8125ZM6.75 5.90625C6.75 6.56543 6.89941 7.19385 7.19824 7.7915C7.49707 8.38916 7.91016 8.88574 8.4375 9.28125V5.90625C8.4375 5.55469 8.50342 5.2251 8.63525 4.91748C8.76709 4.60986 8.94727 4.3418 9.17578 4.11328C9.4043 3.88477 9.67236 3.70459 9.97998 3.57275C10.2876 3.44092 10.6172 3.375 10.9688 3.375C11.3203 3.375 11.6499 3.44092 11.9575 3.57275C12.2651 3.70459 12.5332 3.88477 12.7617 4.11328C12.9902 4.3418 13.1704 4.60986 13.3022 4.91748C13.4341 5.2251 13.5 5.55469 13.5 5.90625V9.28125C14.0273 8.88574 14.4404 8.38916 14.7393 7.7915C15.0381 7.19385 15.1875 6.56543 15.1875 5.90625C15.1875 5.32617 15.0776 4.78125 14.8579 4.27148C14.6382 3.76172 14.335 3.31787 13.9482 2.93994C13.5615 2.56201 13.1133 2.25879 12.6035 2.03027C12.0938 1.80176 11.5488 1.6875 10.9688 1.6875C10.3887 1.6875 9.84375 1.79736 9.33398 2.01709C8.82422 2.23682 8.37598 2.54004 7.98926 2.92676C7.60254 3.31348 7.29932 3.76172 7.07959 4.27148C6.85986 4.78125 6.75 5.32617 6.75 5.90625ZM21.9375 14.3438C21.9375 14.1152 21.854 13.9175 21.687 13.7505C21.52 13.5835 21.3223 13.5 21.0938 13.5C20.7949 13.5 20.5884 13.5835 20.4741 13.7505C20.3599 13.9175 20.2896 14.124 20.2632 14.3701C20.2368 14.6162 20.2324 14.8887 20.25 15.1875C20.2676 15.4863 20.2676 15.7544 20.25 15.9917C20.2324 16.229 20.1621 16.4399 20.0391 16.6245C19.916 16.8091 19.7051 16.8926 19.4062 16.875C19.0811 16.875 18.8613 16.7739 18.7471 16.5718C18.6328 16.3696 18.5625 16.106 18.5361 15.7808C18.5098 15.4556 18.5186 15.1172 18.5625 14.7656C18.6064 14.4141 18.6152 14.0757 18.5889 13.7505C18.5625 13.4253 18.4966 13.166 18.3911 12.9727C18.2856 12.7793 18.0615 12.6738 17.7188 12.6562C17.4199 12.6562 17.2134 12.7397 17.0991 12.9067C16.9849 13.0737 16.9146 13.2803 16.8882 13.5264C16.8618 13.7725 16.8574 14.0449 16.875 14.3438C16.8926 14.6426 16.8926 14.9106 16.875 15.1479C16.8574 15.3853 16.7871 15.5962 16.6641 15.7808C16.541 15.9653 16.3301 16.0488 16.0312 16.0312C15.7061 16.0312 15.4863 15.9302 15.3721 15.728C15.2578 15.5259 15.1875 15.2622 15.1611 14.937C15.1348 14.6118 15.1436 14.2734 15.1875 13.9219C15.2314 13.5703 15.2402 13.2319 15.2139 12.9067C15.1875 12.5815 15.1216 12.3223 15.0161 12.1289C14.9106 11.9355 14.6865 11.8301 14.3438 11.8125C14.0449 11.8125 13.8384 11.896 13.7241 12.063C13.6099 12.23 13.5396 12.4365 13.5132 12.6826C13.4868 12.9287 13.4824 13.2012 13.5 13.5C13.5176 13.7988 13.5176 14.0669 13.5 14.3042C13.4824 14.5415 13.4121 14.7524 13.2891 14.937C13.166 15.1216 12.9551 15.2051 12.6562 15.1875C12.4277 15.1875 12.23 15.104 12.063 14.937C11.896 14.77 11.8125 14.5723 11.8125 14.3438V5.90625C11.8125 5.67773 11.729 5.47998 11.562 5.31299C11.395 5.146 11.1973 5.0625 10.9688 5.0625C10.7402 5.0625 10.5425 5.146 10.3755 5.31299C10.2085 5.47998 10.125 5.67773 10.125 5.90625V16.2817C10.125 16.4839 10.0898 16.6685 10.0195 16.8354C9.94922 17.0024 9.84814 17.1562 9.71631 17.2969C9.58447 17.4375 9.43066 17.5386 9.25488 17.6001C9.0791 17.6616 8.89453 17.7012 8.70117 17.7188C8.50781 17.7188 8.32324 17.6836 8.14746 17.6133C7.97168 17.543 7.80908 17.4375 7.65967 17.2969L5.82715 15.4644C5.64258 15.2798 5.42285 15.1875 5.16797 15.1875C4.91309 15.1875 4.69336 15.2798 4.50879 15.4644C4.32422 15.6489 4.22754 15.873 4.21875 16.1367C4.21875 16.3916 4.31104 16.6113 4.49561 16.7959L10.7183 23.0317C11.4565 23.77 12.2651 24.3325 13.144 24.7192C14.0229 25.106 14.9854 25.3037 16.0312 25.3125C16.8486 25.3125 17.6133 25.1587 18.3252 24.8511C19.0371 24.5435 19.6611 24.1216 20.1973 23.5854C20.7334 23.0493 21.1553 22.4253 21.4629 21.7134C21.7705 21.0015 21.9287 20.2324 21.9375 19.4062V14.3438Z" fill="white"/>
</svg>
